<svg version="1.2" xmlns="http://www.w3.org/2000/svg" viewBox="0 0 402 111" width="402" height="111">
	<title>reeco-svg</title>
	<style>
		.s0 { fill: #ffffff } 
	</style>
	<path id="Layer" fill-rule="evenodd" class="s0" d="m90.3 110.8h-29.9c-5.4-17.4-9.3-28.4-13.8-34-5.1-6.4-14.6-6.3-22.1-6.3 0 0-0.1 16.7 0 21.6 0.1 10.7 1.3 15.8 3.3 18.5h-27.4c0-65.8 0-65.8 0-85 0-6.3 0-24.6 0-24.6 0 0 31.3-0.2 48.5-0.2 11.6 0 34.5 5.7 34.5 35.4 0 17.2-10.1 26.6-23.1 30.2 5.5 2.2 10.1 4.6 14 17.3 4.7 15.5 9.1 22.2 16 27.1zm-30-75.3c0-11.7-9.1-14.9-19.6-14.9-5.8 0-16.2 0-16.2 0 0 5.3 0 32 0 32 0 0 8.7 0 16.2 0 12.6 0 19.6-5.4 19.6-17.1z"/>
	<path id="Layer" fill-rule="evenodd" class="s0" d="m392 97.6c-12.8 15-38 16.7-54.4 7.6-21.1-11.8-24.9-45.6-9.5-63.9 12.9-15.2 38.4-17 54.8-7.6 12.2 6.9 18.6 21.3 18.7 35.7 0 10.3-3.1 20.6-9.6 28.2zm-19.1-12.7c2.9-4 4.3-9.6 4.3-15.5 0-6-1.4-11.5-4.3-15.5-3.2-4.6-8-6.9-12.8-7-4.7 0.1-9.5 2.4-12.7 7-2.9 4-4.3 9.5-4.3 15.5 0 5.9 1.4 11.5 4.3 15.5 3.2 4.6 8 6.9 12.7 6.9 4.8 0 9.6-2.3 12.8-6.9z"/>
	<path id="Layer" class="s0" d="m287.2 90.9c-8.6 0-21.2-6-21.2-21.5 0-15.5 12.6-21.6 21.2-21.6 6.8 0 14.6 2.2 20 5.8 0 0 2.2-7 7.4-15.8-8.1-6.5-21.1-9.9-31.5-9.9-18.7 0-41.8 11.1-41.8 41.5 0 30.4 23.1 41.4 41.8 41.4 10.4 0 23.4-3.3 31.5-9.9-5.2-8.8-7.4-15.8-7.4-15.8-5.4 3.7-13.2 5.8-20 5.8z"/>
	<path id="Layer" fill-rule="evenodd" class="s0" d="m234.1 86.4c1.4 5.5 3.9 10.9 7.2 15.9-11.3 7.1-25.1 8.5-35.5 8.5-16.5 0-27.6-8.1-29.6-9.8-7.3 2.5-23.3 9.8-41.9 9.8-12.2 0-20.1-1.4-28.4-5.4-11.1-5.4-17-15.2-18.7-27.3-2.2-15.4 0.6-29.6 13.1-40.4 12.4-10.9 33.5-13.3 46.8-3.9 11.5 8.2 13.7 30.5-0.6 42.7-9.8 8.3-25.5 14.4-25.5 14.4 4.9 1.7 10.5 2.5 16.1 2.2 9.9-0.7 21.4-3.8 29.5-7-0.7-2.2-1.9-5.7-2.3-8-2.1-15.4 0.6-29.6 13.1-40.4 12.4-10.9 33.5-13.3 46.8-3.9 6.6 4.7 10.4 13 9.9 22.6-0.9 16.9-16.6 26-34.6 34.9 13.6 4.1 27.4-0.9 34.6-4.9zm-123.4-10.7c8.2-3.3 15.9-6.5 21.9-13.5 3.4-3.8 6.2-10.7-0.1-14.8-6-4-13.9 0-17.6 5.2-5.1 7.2-4.7 19-4.2 23.1zm77.8 1.5c8.2-3.3 15.7-6.6 21.8-13.6 3.3-3.8 5.6-12.1-0.6-16.2-6-4-13.9 0-17.6 5.2-5.1 7.2-5.4 17.9-3.6 24.6z"/>
</svg>